inDegrees=no
num_controls=7
num_derivatives=13
num_iterations=103
num_multipliers=7
num_parameters=0
num_slacks=7
num_states=26
objective=0.516979
objective_accelerations=0.039809
objective_balance=0.002220
objective_effort=0.044251
objective_height=0.419051
objective_ligament=0.011648
solver_duration=1370.470078
status=Solve_Succeeded
success=true
DataType=double
version=3
OpenSimVersion=4.5
endheader
time	/jointset/ground_pelvis/pelvis_tilt/value	/jointset/ground_pelvis/pelvis_tx/value	/jointset/ground_pelvis/pelvis_ty/value	/jointset/hip_l/hip_flexion_l/value	/jointset/hip_l/hip_adduction_l/value	/jointset/hip_l/hip_rotation_l/value	/jointset/back/lumbar_extension/value	/jointset/patellofemoral_l/patellar_flexion_l/value	/jointset/knee_l/knee_flexion_l/value	/jointset/knee_l/knee_adduction_l/value	/jointset/knee_l/knee_rotation_l/value	/jointset/ankle_l/ankle_angle_l/value	/jointset/subtalar_l/subtalar_angle_l/value	/jointset/ground_pelvis/pelvis_tilt/speed	/jointset/ground_pelvis/pelvis_tx/speed	/jointset/ground_pelvis/pelvis_ty/speed	/jointset/hip_l/hip_flexion_l/speed	/jointset/hip_l/hip_adduction_l/speed	/jointset/hip_l/hip_rotation_l/speed	/jointset/back/lumbar_extension/speed	/jointset/patellofemoral_l/patellar_flexion_l/speed	/jointset/knee_l/knee_flexion_l/speed	/jointset/knee_l/knee_adduction_l/speed	/jointset/knee_l/knee_rotation_l/speed	/jointset/ankle_l/ankle_angle_l/speed	/jointset/subtalar_l/subtalar_angle_l/speed	/forceset/tau_hip_flexion_l	/forceset/tau_hip_adduction_l	/forceset/tau_hip_rotation_l	/forceset/tau_knee_flexion_l	/forceset/tau_ankle_angle_l	/forceset/tau_subtalar_angle_l	/forceset/tau_lumbar_extension	lambda_cid13_p0	lambda_cid13_p1	lambda_cid13_p2	lambda_cid13_p3	lambda_cid13_p4	lambda_cid13_p5	lambda_cid14_p0	/jointset/ground_pelvis/pelvis_tilt/accel	/jointset/ground_pelvis/pelvis_tx/accel	/jointset/ground_pelvis/pelvis_ty/accel	/jointset/hip_l/hip_flexion_l/accel	/jointset/hip_l/hip_adduction_l/accel	/jointset/hip_l/hip_rotation_l/accel	/jointset/back/lumbar_extension/accel	/jointset/patellofemoral_l/patellar_flexion_l/accel	/jointset/knee_l/knee_flexion_l/accel	/jointset/knee_l/knee_adduction_l/accel	/jointset/knee_l/knee_rotation_l/accel	/jointset/ankle_l/ankle_angle_l/accel	/jointset/subtalar_l/subtalar_angle_l/accel	gamma_cid13_p0	gamma_cid13_p1	gamma_cid13_p2	gamma_cid13_p3	gamma_cid13_p4	gamma_cid13_p5	gamma_cid14_p0
0.5	-0.1291703156161956	-0.05884860744298179	0.8242116855009937	0.8989943483957009	-0.3235423715601715	-0.1256744710297023	-0.7797441331226432	0.7778612416161957	0.7778612416161091	-0.1104063848177349	-0.1743444353413516	0.06113305372746096	-0.01008044626323821	-0.2237902595878823	-0.2087635046654052	-0.3380211586525765	1.503994806099157	-0.04029148801424298	0.4487924834635962	-0.8353260731115391	1.416388002120004	1.416388002119919	0.1341540930771287	-0.001131747198696401	0.2259713761389676	0.02721185232367043	-0.2888546286505667	0.03569758599957518	-0.00301037870637096	-0.2036894770917961	0.1218069255855699	0.03672171875372927	0.3340625432954769	-5.889324830080083	-16.17379164156642	3.559722219709772	-10.22396763477074	-703.669193301107	-64.22245885777927	-15.27638091311443	0.3668477328840426	0.6759487806557591	-0.1120660939261033	-1.499687072676719	0.1871143450570334	-0.2234036667665718	1.691723537396041	-0.9899659610538766	-0.9899659610538786	-0.3738623707440418	0.07053869166276448	0.09636614874273364	0.2345333001668237	-3.810607468786209e-08	-5.202333485442834e-07	-5.024963941809765e-08	-7.013628726569675e-08	-6.948501108899229e-08	-4.153015938529123e-08	-6.966112875231858e-08
0.51	-0.1313897748549598	-0.06090238570960554	0.8208266233487602	0.9139572542889481	-0.3239360452977588	-0.1211998451659197	-0.788011853445058	0.7919731468675152	0.7919731468672706	-0.1090830759006896	-0.1743535689171135	0.06339676606469638	-0.009796954663269341	-0.2200868530534606	-0.2019866330475885	-0.3389135799637118	1.488386843305107	-0.03842133755459439	0.4459951724778431	-0.8181261968282147	1.405755155879196	1.405755155879179	0.1305796379094644	-0.0007312261270062149	0.2267088403537191	0.02949273307888157	-0.2953006678519706	0.03616404358996732	-0.003240208290877052	-0.2061937031268994	0.1221169168778231	0.03707577257190824	0.340203412788687	-6.020566554825503	-16.24754717461678	3.506338210402189	-10.19133499581082	-707.6598057566321	-64.05874807879306	-14.76368334344874	0.3742950286188146	0.6793709814716477	-0.06618954021433697	-1.6212826689692	0.1903193218613566	-0.3285837796891233	1.74788885457846	-1.135613838013022	-1.135613838003256	-0.3385336932680717	0.01937992116225036	0.05308124413205634	0.2258838619212607	-5.926275938432518e-08	-4.02039923705424e-07	1.380860623548171e-07	-3.678717875191509e-08	-8.051782930859073e-08	-3.076837105107207e-08	-7.761566133201317e-08
0.52	-0.1335717584453333	-0.06288823233422576	0.8174349651053144	0.9287580941970419	-0.3243103467456301	-0.1167573302051434	-0.7961048211684795	0.8059715896798116	0.8059715896796475	-0.1077933708556637	-0.1743597830611728	0.06566598198133215	-0.009490450576003793	-0.2162951299231789	-0.1951771762646985	-0.3393403768947709	1.471581609063078	-0.03641703007720642	0.4423703028836835	-0.8003755533138014	1.393695514341657	1.393695514341708	0.1274333186021498	-0.0005478608056913025	0.2270720920201107	0.03181434978300653	-0.3017467070535522	0.03663050118016242	-0.003470037872784412	-0.2086979291621643	0.1224269081699862	0.03742982638975399	0.3463442822818026	-6.154645880504202	-16.3215298980055	3.453817516047519	-10.18727194662965	-711.7175977723209	-63.91358167019487	-14.24779267375287	0.3845110520548571	0.6824658136710207	-0.01894121791075428	-1.739141362272607	0.2139457486049776	-0.3889153884479482	1.801876983613305	-1.275325020400121	-1.275325020400121	-0.2882351986742187	0.02710754158756227	0.02152363907155472	0.2426804899497529	-9.756848649328277e-08	-2.353517471531895e-07	4.392532728843727e-07	1.732893718351905e-08	-1.101996074033594e-07	-1.828799952244499e-08	-9.345252297703577e-08
0.53	-0.1357152630302313	-0.06480586582437024	0.81404138825502	0.9433847593222031	-0.3246642990533687	-0.1123535422145184	-0.8040177987389114	0.8198423327950428	0.8198423327949378	-0.1065345718367646	-0.1743642915944113	0.0679369210089488	-0.009160955329125933	-0.2123800104217524	-0.1883487145072824	-0.3392946067753553	1.453541467355969	-0.03437074034223651	0.4382786054378258	-0.7821544900712063	1.380222454523072	1.380222454523069	0.124354179693044	-0.0003846980367954724	0.2270538516614271	0.03406999238528705	-0.3079841717286152	0.03703173157967849	-0.003702374151637648	-0.2112050221844314	0.1226351582431891	0.03768203144959097	0.3522507035454818	-6.319877922048417	-16.34456337048286	3.39173263555352	-10.08952976332617	-715.6561572488941	-63.6892606966919	-13.72939496017555	0.3988666636304906	0.6831665976762841	0.02836892748583756	-1.867958297795611	0.2003118811379501	-0.4356967241606617	1.842041599180219	-1.417874236320191	-1.417874236328514	-0.3136064344221824	0.006413448723238791	-0.02277960034711339	0.214753920071515	-1.157270500738121e-07	-1.296011696601878e-07	5.980191894036731e-07	4.739458754608395e-08	-1.217173739587936e-07	-7.112809116633909e-09	-9.934788871807689e-08
0.54	-0.1378188455672116	-0.0666551886487609	0.810650675666043	0.9578247214857161	-0.3249977202047354	-0.1079939511586215	-0.8117466015559949	0.8335714297573764	0.8335714297572653	-0.105305734846528	-0.1743680699390573	0.07020582128758017	-0.008809354101284533	-0.208310720342627	-0.1815150431139322	-0.3387675246310025	1.434241016734217	-0.03231079879947166	0.4335309159317458	-0.763540602644725	1.365366283755201	1.365366283755144	0.1214409128882039	-0.0004018231005989556	0.2266643422224012	0.03623554597574489	-0.3142216364036979	0.03743296197922516	-0.003934710431177212	-0.2137121152066426	0.1228434083164286	0.03793423650949841	0.3581571248091242	-6.488647181758811	-16.36779514019607	3.330613822003106	-10.02385013664235	-719.6747479378772	-63.50063360703455	-13.20931481815103	0.4153451675936081	0.683507740858403	0.07732118707682639	-1.991203145201788	0.2166761101638715	-0.5201138004924299	1.880441820390183	-1.55194721025741	-1.551947210257414	-0.2550607778212177	-0.008950024952413385	-0.05273017699612262	0.2246626875853794	-1.115951348569312e-07	-9.127091453059327e-08	5.992347380818382e-07	5.085121216845278e-08	-1.131387873217725e-07	2.618351110742434e-09	-9.424415260790436e-08
0.55	-0.1398810657940531	-0.06843621395092074	0.8072676305893931	0.9720656058304816	-0.3253105081248416	-0.1036841290565557	-0.8192872836360867	0.8471451452098248	0.8471451452097815	-0.104105799777219	-0.1743721989064413	0.07246897734336162	-0.00843659920256346	-0.2041157020730968	-0.1746954602666599	-0.3377614693028494	1.413741830791142	-0.03025136800421507	0.4284103473752777	-0.7445307925176129	1.349151271212152	1.349151271212124	0.1185104784211479	-0.0003965352143465305	0.2259028098570968	0.03829075216814504	-0.3203329712426979	0.03771311680669615	-0.00412730916594254	-0.2160813211182007	0.1226977277755284	0.03819692176381335	0.3638940409652172	-6.766128037917219	-16.37749373680472	3.268421998096521	-9.798930474063566	-723.5659457558386	-63.32103811869348	-12.688459671404	0.4242115349607929	0.6803776633365994	0.1242292235326555	-2.108394606027571	0.1998155813301754	-0.5115875456652549	1.921003736746284	-1.690090312892864	-1.690090312888574	-0.3173729828446079	0.009503147704740223	-0.09747303453098005	0.1921885108400834	-1.057792440572833e-07	-5.649819599510123e-08	5.942010945520893e-07	5.232198833978548e-08	-1.01785357923875e-07	1.284300775191922e-08	-8.87853140503375e-08
0.5600000000000001	-0.1419008095625222	-0.07014920460327288	0.8038970423695931	0.9860956746583763	-0.3256028539335808	-0.09942622447253795	-0.826635916989332	0.8605499481295338	0.860549948129551	-0.1029362366928954	-0.1743754280045168	0.07472259642184366	-0.008044044456764049	-0.1998154286704658	-0.1679081131523928	-0.336276153260669	1.392077913361371	-0.02822237652400181	0.4231474123211616	-0.7251308572755321	1.33158377720654	1.331583777206541	0.1153665158862118	-0.0002218492364628335	0.2247569467624626	0.04019551539145828	-0.3264443060817598	0.03799327163414912	-0.004319907900612758	-0.2184505270297659	0.1225520472346296	0.03845960701810589	0.3696309571212575	-7.047999179363309	-16.38737901529347	3.207351620964464	-9.601977661362998	-727.5473926820583	-63.17794861053461	-12.16780393406778	0.4363961942128928	0.6770605942579337	0.1731733298824172	-2.224149442541458	0.2105882471551444	-0.5485871000220562	1.95846684338364	-1.822443502770122	-1.822443502770132	-0.2977663913973684	0.02492959337372571	-0.1295963228613519	0.1945740937681558	-9.794258255831515e-08	-2.599452137253202e-08	5.816684203728437e-07	5.140974636987489e-08	-8.710211721292622e-08	2.365986008965651e-08	-8.290035255589744e-08
0.5700000000000001	-0.1438769782756416	-0.07179446275354119	0.8005436680853373	0.9999034938082431	-0.3258749637875784	-0.09522213065481035	-0.8337886188022741	0.8737728436161887	0.8737728436162395	-0.1017985132548562	-0.1743764192731982	0.07696318280859638	-0.007632966289031953	-0.1953912630712229	-0.1611464627075637	-0.3343212334010801	1.369301335103923	-0.02620166761682804	0.4175898164704823	-0.7053518268391544	1.312815571963896	1.312815571963864	0.1122041782195936	5.390975874732488e-06	0.2233269952794726	0.04200934633870224	-0.3323014646673754	0.03816493816970579	-0.004498322460826884	-0.2208815837440242	0.1226607875314332	0.03858714668487625	0.3751492752221265	-7.23505173799483	-16.35315438688009	3.136943167918337	-9.517519022691697	-731.2925604083725	-62.95469525087546	-11.64836337128046	0.4494732758032735	0.6752855790066894	0.2182560834750493	-2.332112761215954	0.1974230492808244	-0.5716495424371516	1.996272914319936	-1.93095534512199	-1.930955345127033	-0.3215527365495446	0.01900440700884899	-0.1546912917268034	0.1731059661114227	-8.965443289207049e-08	-4.055563843605704e-09	5.578513534595336e-07	4.889602905294836e-08	-7.37330900173783e-08	3.187801896064851e-08	-7.675382316371395e-08
0.58	-0.1458080960261557	-0.07337219073747908	0.7972121639535712	1.013478007026755	-0.3261269443851611	-0.09107607353854195	-0.8407417999567406	0.8868026677884028	0.8868026677884719	-0.1006916302499211	-0.1743756615053939	0.07918847033437829	-0.007204086137645871	-0.1908052361510673	-0.154402079886308	-0.3319021227623169	1.345416727091684	-0.02419652523835223	0.4115400720259548	-0.6852267255805838	1.292969514316839	1.292969514316774	0.1091984292627498	0.0001279580620202696	0.2216971745681292	0.04375591212230722	-0.338158623253034	0.03833660470526403	-0.004676737021058361	-0.2233126404582811	0.122769527828245	0.03871468635165258	0.3806675933229549	-7.427467371316967	-16.31888375221251	3.067547936391287	-9.457377104297837	-735.1404988438685	-62.76657368222162	-11.13116035489301	0.468768458394597	0.6736070695438618	0.2660114857173884	-2.44575539349974	0.2074749414154871	-0.6470168187917605	2.02768100782196	-2.038013983652695	-2.038013983652704	-0.2664486494426287	0.003994968135205484	-0.1695701685313014	0.1811210610405145	-8.077829863588445e-08	6.729343516855726e-09	5.193383332181406e-07	4.42966694236291e-08	-6.207559670235253e-08	3.671183285169319e-08	-7.026664720702747e-08
0.59	-0.1476924416541917	-0.07488258407832227	0.7939071342358173	1.026808237043426	-0.3263590049051383	-0.08699272558651679	-0.8474920851564791	0.8996289960616258	0.8996289960616065	-0.09961413442860649	-0.1743741254805395	0.08139662871587652	-0.006758083712553808	-0.1860232141091069	-0.1476813720774469	-0.3290295742104656	1.320447119971085	-0.02222947637726485	0.4050787146598954	-0.6647845761365754	1.272147463386215	1.272147463386186	0.1062983921191763	0.0001672832503115236	0.2199151076366054	0.04542506296275893	-0.3439008320752147	0.03844592776434506	-0.004818014421828093	-0.2254535789240189	0.1225172665971727	0.03882721895410911	0.3860107922312844	-7.718423403598991	-16.26237139518354	2.996353430054137	-9.310170028527592	-738.6983890411319	-62.5403361916073	-10.61739626838608	0.4890108161133929	0.6705933892067151	0.3090024777636234	-2.54989817926561	0.1891646937563842	-0.6533757327406308	2.059342646773932	-2.126588896102124	-2.126588896097046	-0.3021184205627429	0.002205129957733948	-0.1854297842400734	0.156825295305114	-7.217130054853792e-08	2.663890861850333e-08	4.874765281098877e-07	4.225357659616804e-08	-5.175287471876331e-08	4.172360861791653e-08	-6.306624447391396e-08
